<svg xmlns="http://www.w3.org/2000/svg" width="300" height="30" viewBox="0 0 300 30">
  <g fill="none" fill-rule="evenodd" transform="translate(1 2)">
    <g fill="#CACCCD" transform="translate(37.376 3)">
      <path d="M.505084746 1C.909152542 1 2.42440678 1.1 3.73762712 1.1 5.05084746 1.1 6.06101695 1 6.66711864 1 6.76813559 1.1 6.76813559 1.4 6.66711864 1.4 6.06101695 1.5 5.7579661 1.5 5.35389831 1.7 4.84881356 1.9 4.64677966 2.1 4.64677966 3.4 4.54576271 5.8 4.54576271 11.3 4.64677966 12.9 4.74779661 15.1 5.15186441 16.1 5.85898305 16.9 6.86915254 18.2 8.78847458 18.8 10.6067797 18.8 13.5362712 18.8 15.859661 17.7 16.0616949 12.9 16.1627119 10.6 16.2637288 7.1 16.1627119 3.9 16.1627119 2 15.5566102 1.8 14.8494915 1.7 14.4454237 1.6 14.1423729 1.6 13.5362712 1.5 13.4352542 1.4 13.5362712 1.1 13.5362712 1.1 13.940339 1.1 14.9505085 1.2 16.6677966 1.2 17.88 1.2 18.7891525 1.1 19.2942373 1.1 19.3952542 1.2 19.3952542 1.5 19.2942373 1.5 18.8901695 1.6 18.4861017 1.6 18.1830508 1.7 17.4759322 1.9 17.1728814 2.4 17.1728814 4.1 17.1728814 12 17.1728814 13 16.7688136 14.9 15.960678 18.8 12.8291525 19.9 9.89966102 19.9 5.65694915 19.9 3.33355932 18.1 2.92949153 14.5 2.72745763 12.7 2.82847458 4.9 2.72745763 3.4 2.72745763 2.6 2.72745763 2 2.02033898 1.8 1.71728814 1.7.909152542 1.6.505084746 1.5.404067797 1.4.404067797 1.1.505084746 1zM22.8298305 1C23.2338983 1 24.6481356 1.1 25.5572881 1.1L26.8705085 1.1C26.9715254 1.3 27.2745763 1.7 28.0827119 2.7 31.6183051 6.9 38.6894915 15.5 39.800678 16.7 39.800678 16.7 39.9016949 16.7 39.9016949 16.6 39.9016949 12.6 40.0027119 5.4 39.800678 3.3 39.699661 2.5 39.5986441 2 38.7905085 1.7 38.2854237 1.6 37.679322 1.5 36.9722034 1.4 36.8711864 1.3 36.9722034 1 36.9722034 1 37.679322 1 38.9925424 1.1 40.4067797 1.1 41.2149153 1.1 42.8311864 1 43.1342373 1 43.2352542 1.1 43.2352542 1.4 43.1342373 1.4 42.6291525 1.5 42.3261017 1.5 41.9220339 1.6 41.2149153 1.8 41.0128814 2.4 40.9118644 3.1 40.8108475 5.3 40.8108475 11.5 40.7098305 15.5 40.7098305 16.8 40.7098305 18.5 40.8108475 19.4L39.2955932 19.4C37.780339 17.2 28.2847458 5.7 26.8705085 4L26.7694915 4 26.7694915 16.6C26.8705085 18.1 27.2745763 18.4 27.880678 18.6 28.2847458 18.7 28.8908475 18.8 29.4969492 18.9 29.5979661 18.9 29.4969492 19.3 29.4969492 19.3 28.8908475 19.3 27.6786441 19.2 26.0623729 19.2 24.7491525 19.2 23.7389831 19.3 23.1328814 19.3 23.0318644 19.2 23.0318644 18.9 23.1328814 18.9 23.7389831 18.8 23.9410169 18.8 24.3450847 18.7 25.0522034 18.5 25.5572881 18.2 25.5572881 16.6 25.6583051 15.2 25.759322 9.7 25.759322 3.5 25.759322 3.2 25.6583051 2.7 25.2542373 2.2 24.6481356 1.5 23.9410169 1.4 22.7288136 1.3 22.7288136 1.4 22.7288136 1.1 22.8298305 1zM59.9030508 2C58.8928814 1.5 57.7816949 1.3 56.0644068 1.3 51.3166102 1.3 48.4881356 4.6 48.4881356 9.9 48.4881356 15.6 51.8216949 19.1 57.0745763 19.1 57.9837288 19.1 59.4989831 19 60.7111864 17.9 61.519322 17.1 62.0244068 16.4 62.6305085 15.2 62.7315254 15.2 63.0345763 15.3 63.0345763 15.4 62.6305085 16.9 61.4183051 19 60.8122034 19.3 60.0040678 19.6 58.2867797 19.9 56.4684746 19.9 50.1044068 19.9 46.2657627 16.3 46.2657627 10.1 46.2657627 6.9 47.68 3.7 50.9125424 2 52.5288136 1.1 54.4481356.6 57.0745763.6 59.3979661.6 61.2162712 1.1 62.6305085 1.2 62.4284746 2.1 62.1254237 4.2 62.1254237 5.4 62.0244068 5.5 61.620339 5.6 61.620339 5.5 61.2162712 3 60.8122034 2.4 59.9030508 2zM69.1966102 17.1C67.3783051 15.2 66.5701695 12.6 66.5701695 10 66.5701695 7.9 67.1762712 6 68.2874576 4.5 70.0047458 2.1 73.439322.5 76.3688136.5 82.4298305.5 85.460339 5 85.460339 9.8 85.460339 12.3 84.8542373 14.2 83.6420339 15.9 81.9247458 18.5 78.7932203 19.9 75.7627119 19.9 73.1362712 19.9 70.7118644 18.8 69.1966102 17.1zM80.6115254 17.8C82.7328814 16.2 83.44 13.7 83.44 10.8 83.44 7.7 82.3288136 4.5 79.7023729 2.7 78.4901695 1.9 77.0759322 1.4 75.3586441 1.4 74.1464407 1.4 73.1362712 1.7 72.3281356 2.1 69.9037288 3.4 68.8935593 6.3 68.8935593 9.4 68.8935593 12.4 70.1057627 16 72.9342373 17.8 74.0454237 18.5 75.459661 18.9 77.0759322 18.9 78.4901695 19 79.7023729 18.6 80.6115254 17.8zM87.379661 1C87.9857627 1 89.4 1.1 90.6122034 1.1 92.3294915 1.1 93.1376271 1 93.7437288 1 93.8447458 1.1 93.8447458 1.4 93.7437288 1.4 93.1376271 1.5 92.7335593 1.6 92.4305085 1.7 92.0264407 1.8 91.8244068 2.1 92.0264407 2.5 93.0366102 5.3 96.8752542 15.2 97.380339 16.5L97.4813559 16.5C97.8854237 15.7 101.825085 5.9 102.734237 3.4 103.037288 2.4 103.037288 1.9 102.128136 1.7 101.623051 1.6 101.32 1.6 100.713898 1.5 100.713898 1.4 100.713898 1.1 100.814915 1.1 101.522034 1.1 102.532203 1.2 103.845424 1.2 105.158644 1.2 106.168814 1.1 106.673898 1.1L106.673898 1.5C106.269831 1.5 105.865763 1.6 105.461695 1.7 104.552542 1.9 104.350508 2.4 103.441356 4.5 102.532203 6.5 100.00678 12.6 98.5925424 16.2 98.0874576 17.5 97.6833898 18.6 97.4813559 19.5 97.1783051 19.4 96.5722034 19.4 96.3701695 19.5 96.0671186 18.3 95.6630508 17 95.0569492 15.4 93.5416949 11.4 91.319322 5.6 90.4101695 3.3 89.9050847 2 89.5010169 1.7 88.7938983 1.5 88.3898305 1.4 87.8847458 1.4 87.480678 1.3 87.2786441 1.4 87.2786441 1.1 87.379661 1zM110.310508 1C111.017627 1 111.92678 1.1 113.644068 1.1L119.806102 1.1C121.018305 1.1 122.533559 1.1 123.038644 1L123.139661 1.1C122.83661 2.1 122.634576 3.9 122.533559 4.9 122.432542 5 122.129492 5 122.028475 4.9 121.927458 4.1 121.826441 3.5 121.725424 3.1 121.52339 2.4 121.321356 1.9 119.907119 1.8 119.098983 1.8 115.56339 1.7 115.058305 1.8 114.856271 1.8 114.755254 2.1 114.755254 2.2 114.654237 3.3 114.654237 8.9 114.654237 9.2 114.654237 9.3 114.654237 9.4 114.755254 9.4 115.56339 9.5 118.896949 9.4 119.907119 9.4 120.917288 9.3 121.119322 8.9 121.321356 8.4 121.422373 8.1 121.52339 7.7 121.624407 7.3 121.725424 7.2 122.129492 7.3 122.129492 7.3 122.028475 7.8 121.927458 9 121.927458 10 121.927458 11.3 122.028475 11.9 122.028475 12.4 121.927458 12.5 121.52339 12.5 121.52339 12.4 121.422373 12 121.422373 11.7 121.321356 11.4 121.220339 11 121.119322 10.4 120.008136 10.4 119.098983 10.3 115.765424 10.3 114.856271 10.4 114.755254 10.4 114.755254 10.6 114.755254 10.6 114.755254 11.1 114.755254 15.5 114.856271 17.3 114.856271 18.1 115.260339 18.3 115.664407 18.4 116.270508 18.5 117.482712 18.6 119.705085 18.6 121.624407 18.6 122.028475 18.2 122.432542 17.8 122.937627 17.4 123.644746 16.3 124.149831 15.1 124.250847 15.1 124.452881 15.2 124.553898 15.3 124.351864 16.3 123.644746 18.5 123.240678 19 123.038644 19.3 122.937627 19.3 121.321356 19.3 119.705085 19.3 118.694915 19.2 113.745085 19.2 111.623729 19.2 110.815593 19.3 109.60339 19.3 109.502373 19.2 109.502373 18.9 109.60339 18.9 110.411525 18.8 111.017627 18.8 111.623729 18.7 112.431864 18.5 112.633898 18.2 112.734915 17 112.734915 16.6 112.835932 13 112.835932 9.5 112.835932 6.5 112.835932 3.7 112.734915 3.2 112.633898 2 112.532881 1.7 111.724746 1.6 111.320678 1.5 110.91661 1.4 110.209492 1.4 110.209492 1.4 110.209492 1.1 110.310508 1zM129.200678 1C129.907797 1 131.423051 1.1 132.231186 1.1 134.251525 1.1 135.76678 1 136.877966 1 140.413559 1 142.938983 3.1 142.938983 5.5 142.938983 8.1 140.312542 9.5 138.494237 10.3 138.39322 10.4 138.39322 10.4 138.494237 10.4 139.706441 12.3 142.332881 15.9 143.747119 17.3 145.262373 18.7 145.767458 18.9 147.282712 19 147.282712 19.1 147.282712 19.4 147.181695 19.4 146.070508 19.5 143.848136 19.3 142.938983 18.9 142.534915 18.7 142.029831 18.4 141.524746 17.8 140.312542 16.6 138.191186 13.1 136.877966 11.5 136.675932 11.1 136.372881 11 136.170847 11L133.746441 11C133.645424 11 133.645424 11.1 133.645424 11.2 133.645424 12.8 133.645424 15.9 133.746441 17 133.746441 18.3 134.049492 18.5 134.554576 18.6 135.059661 18.7 135.665763 18.8 136.170847 18.9 136.271864 19 136.271864 19.3 136.170847 19.3 135.76678 19.3 134.049492 19.2 132.736271 19.2 130.816949 19.2 129.705763 19.3 129.200678 19.3 129.099661 19.3 129.099661 18.9 129.200678 18.9 129.80678 18.8 130.412881 18.8 130.715932 18.7 131.423051 18.5 131.625085 18.1 131.726102 17 131.726102 16.2 131.827119 11.9 131.827119 10.4 131.827119 8.7 131.827119 4 131.726102 2.9 131.726102 2.2 131.524068 1.7 130.715932 1.6 130.311864 1.5 129.705763 1.5 129.200678 1.4 129.099661 1.4 129.099661 1.1 129.200678 1zM133.847458 1.8C133.746441 1.8 133.645424 2 133.645424 2.2 133.544407 3.2 133.544407 8.1 133.544407 10 133.544407 10.1 133.645424 10.1 133.645424 10.1 134.655593 10.2 136.675932 10.3 137.484068 10 138.595254 9.6 140.817627 8.6 140.817627 6 140.817627 3.2 138.292203 1.6 134.857627 1.6 134.554576 1.7 134.150508 1.7 133.847458 1.8zM170.213559 19.5C169.304407 19.5 167.587119 19.4 166.576949 19.4 164.960678 19.4 163.344407 19.5 162.435254 19.5 162.334237 19.4 162.334237 19.1 162.435254 19.1 163.445424 19 164.051525 18.9 164.455593 18.8 165.364746 18.7 165.465763 18 165.56678 16.7 165.56678 15.8 165.667797 7 165.667797 2.2 165.667797 2.1 165.56678 2 165.465763 2L161.021017 2C160.616949 2 160.212881 2.3 159.909831 2.7 159.505763 3.3 159.101695 4.4 158.798644 5.3 158.697627 5.4 158.394576 5.3 158.293559 5.2 158.495593 4 158.798644 1.9 158.798644.7 158.798644.7 158.899661.6 158.899661.7 159.303729.9 160.414915 1.1 161.122034 1.1L172.334915 1.1C173.345085 1.1 173.951186 1.1 174.860339.7 174.860339.7 174.961356.7 174.961356.8 174.658305 1.7 174.456271 3.7 174.355254 5.2 174.355254 5.3 173.850169 5.3 173.850169 5.2 173.749153 4.5 173.648136 3.4 173.446102 2.8 173.244068 2.3 172.941017 2 172.334915 2 171.122712 1.9 168.395254 1.9 167.688136 2 167.587119 2 167.587119 2.2 167.587119 2.3 167.587119 6.6 167.688136 15.3 167.688136 16.7 167.789153 18.6 168.092203 18.7 168.799322 18.9 169.20339 19 169.607458 19.1 170.314576 19.1 170.314576 19.1 170.314576 19.5 170.213559 19.5zM178.496949 1C179.204068 1 180.719322 1.1 181.527458 1.1 183.547797 1.1 185.063051 1 186.174237 1 189.709831 1 192.235254 3.1 192.235254 5.5 192.235254 8.1 189.608814 9.5 187.790508 10.3 187.689492 10.4 187.689492 10.4 187.790508 10.4 189.002712 12.3 191.629153 15.9 193.04339 17.3 194.558644 18.7 195.063729 18.9 196.578983 19 196.578983 19.1 196.578983 19.4 196.477966 19.4 195.36678 19.5 193.144407 19.3 192.235254 18.9 191.831186 18.7 191.326102 18.4 190.821017 17.8 189.608814 16.6 187.487458 13.1 186.174237 11.5 185.972203 11.1 185.669153 11 185.467119 11L183.042712 11C182.941695 11 182.941695 11.1 182.941695 11.2 182.941695 12.8 182.941695 15.9 183.042712 17 183.042712 18.3 183.345763 18.5 183.850847 18.6 184.355932 18.7 184.962034 18.8 185.467119 18.9 185.568136 19 185.568136 19.3 185.467119 19.3 185.063051 19.3 183.345763 19.2 182.032542 19.2 180.11322 19.2 179.002034 19.3 178.496949 19.3 178.395932 19.3 178.395932 18.9 178.496949 18.9 179.103051 18.8 179.709153 18.8 180.012203 18.7 180.719322 18.5 180.921356 18.1 181.022373 17 181.022373 16.2 181.12339 11.9 181.12339 10.4 181.12339 8.7 181.12339 4 181.022373 2.9 181.022373 2.2 180.820339 1.7 180.012203 1.6 179.608136 1.5 179.002034 1.5 178.496949 1.4 178.395932 1.4 178.395932 1.1 178.496949 1zM183.143729 1.8C183.042712 1.8 182.941695 2 182.941695 2.2 182.840678 3.2 182.840678 8.1 182.840678 10 182.840678 10.1 182.941695 10.1 182.941695 10.1 183.951864 10.2 185.972203 10.3 186.780339 10 187.891525 9.6 190.113898 8.6 190.113898 6 190.113898 3.2 187.588475 1.6 184.153898 1.6 183.850847 1.7 183.44678 1.7 183.143729 1.8zM197.488136 1C197.892203 1 199.407458 1.1 200.720678 1.1 202.033898 1.1 203.044068 1 203.650169 1 203.751186 1.1 203.751186 1.4 203.650169 1.4 203.044068 1.5 202.741017 1.5 202.336949 1.7 201.831864 1.9 201.629831 2.1 201.629831 3.4 201.528814 5.8 201.528814 11.3 201.629831 12.9 201.730847 15.1 202.134915 16.1 202.842034 16.9 203.852203 18.2 205.771525 18.8 207.589831 18.8 210.519322 18.8 212.842712 17.7 213.044746 12.9 213.145763 10.6 213.24678 7.1 213.145763 3.9 213.145763 2 212.539661 1.8 211.832542 1.7 211.428475 1.6 211.125424 1.6 210.519322 1.5 210.418305 1.4 210.519322 1.1 210.519322 1.1 210.92339 1.1 211.933559 1.2 213.650847 1.2 214.863051 1.2 215.772203 1.1 216.277288 1.1 216.378305 1.2 216.378305 1.5 216.277288 1.5 215.87322 1.6 215.469153 1.6 215.166102 1.7 214.458983 1.9 214.155932 2.4 214.155932 4.1 214.054915 12 214.054915 13 213.650847 14.9 212.842712 18.8 209.711186 19.9 206.781695 19.9 202.538983 19.9 200.215593 18.1 199.811525 14.5 199.609492 12.7 199.710508 4.9 199.609492 3.4 199.609492 2.6 199.609492 2 198.902373 1.8 198.599322 1.7 197.791186 1.6 197.387119 1.5 197.387119 1.4 197.387119 1.1 197.488136 1zM232.136949 19.5C231.227797 19.5 229.510508 19.4 228.500339 19.4 226.884068 19.4 225.267797 19.5 224.358644 19.5 224.257627 19.4 224.257627 19.1 224.358644 19.1 225.368814 19 225.974915 18.9 226.378983 18.8 227.288136 18.7 227.389153 18 227.490169 16.7 227.490169 15.8 227.591186 7 227.591186 2.2 227.591186 2.1 227.490169 2 227.389153 2L222.944407 2C222.540339 2 222.136271 2.3 221.83322 2.7 221.429153 3.3 221.025085 4.4 220.722034 5.3 220.621017 5.4 220.317966 5.3 220.216949 5.2 220.418983 4 220.722034 1.9 220.722034.7 220.722034.7 220.823051.6 220.823051.7 221.227119.9 222.338305 1.1 223.045424 1.1L234.258305 1.1C235.268475 1.1 235.874576 1.1 236.783729.7 236.783729.7 236.884746.7 236.884746.8 236.581695 1.7 236.379661 3.7 236.278644 5.2 236.278644 5.3 235.773559 5.3 235.773559 5.2 235.672542 4.5 235.571525 3.4 235.369492 2.8 235.167458 2.3 234.864407 2 234.258305 2 233.046102 1.9 230.318644 1.9 229.611525 2 229.510508 2 229.510508 2.2 229.510508 2.3 229.510508 6.6 229.611525 15.3 229.611525 16.7 229.712542 18.6 230.015593 18.7 230.722712 18.9 231.12678 19 231.530847 19.1 232.237966 19.1 232.237966 19.1 232.237966 19.5 232.136949 19.5zM241.026441 1C242.03661 1 243.551864 1.1 244.461017 1.1 246.077288 1.1 246.784407 1 247.592542 1 247.693559 1.1 247.693559 1.4 247.592542 1.4 247.188475 1.4 246.68339 1.5 246.380339 1.6 245.67322 1.9 245.471186 2 245.471186 3 245.370169 4.2 245.370169 6.2 245.370169 9.3 245.370169 9.4 245.471186 9.5 245.471186 9.5 245.572203 9.5 245.976271 9.6 251.027119 9.6L255.976949 9.6C256.077966 9.6 256.077966 9.5 256.077966 9.5 256.077966 8 256.077966 3.8 255.976949 2.9 255.976949 2.3 255.774915 2 255.370847 1.9 254.865763 1.8 254.360678 1.7 253.855593 1.6 253.754576 1.5 253.754576 1.2 253.855593 1.2 254.461695 1.2 255.673898 1.3 257.088136 1.3 258.300339 1.3 259.815593 1.2 260.320678 1.2 260.421695 1.3 260.421695 1.6 260.320678 1.6 259.815593 1.7 259.310508 1.7 259.007458 1.9 258.401356 2.1 258.098305 2.3 258.098305 3.6 258.098305 4.4 257.997288 7 257.997288 10.4 257.997288 13 257.997288 16.7 258.098305 17.6 258.199322 18.4 258.300339 18.7 258.906441 18.9 259.310508 19 259.714576 19.1 260.522712 19.2 260.623729 19.3 260.623729 19.6 260.421695 19.6 259.209492 19.6 258.502373 19.5 257.088136 19.5 255.673898 19.5 254.461695 19.6 253.754576 19.6 253.653559 19.5 253.653559 19.2 253.754576 19.2 254.259661 19.1 254.663729 19.1 255.269831 19 255.875932 18.8 256.077966 18.6 256.077966 17.5L256.077966 11C256.077966 10.9 255.976949 10.8 255.976949 10.8L250.926102 10.8 245.370169 10.8C245.269153 10.8 245.269153 10.9 245.269153 11 245.269153 12.5 245.269153 16.7 245.370169 17.1 245.471186 18.1 245.370169 18.7 246.077288 18.9 246.481356 19 246.784407 19.1 247.693559 19.2 247.794576 19.3 247.693559 19.6 247.592542 19.6 246.68339 19.6 245.471186 19.5 244.36 19.5 243.248814 19.5 241.531525 19.6 240.824407 19.6 240.72339 19.5 240.72339 19.2 240.824407 19.2 241.430508 19.1 242.03661 19 242.339661 18.9 243.248814 18.6 243.248814 17.9 243.248814 16.6L243.248814 10C243.248814 7.1 243.248814 3.7 243.147797 3.2 243.04678 2.3 242.844746 2 242.339661 1.9 241.935593 1.8 241.430508 1.8 240.72339 1.6 240.925424 1.4 240.925424 1.1 241.026441 1z"/>
    </g>
    <rect width="5.758" height="5.7" x="7.172" y=".8" fill="#241714"/>
    <rect width="5.758" height="5.7" x="13.738" y=".8" fill="#B4B4B5"/>
    <rect width="5.758" height="5.7" x="20.304" y=".8" fill="#5A5757"/>
    <rect width="5.758" height="5.7" x=".606" y="7.2" fill="#DBDCDC"/>
    <rect width="5.758" height="5.7" x="13.738" y="7.2" fill="#888888"/>
    <rect width="5.758" height="5.7" x=".606" y="13.6" fill="#888888"/>
    <rect width="5.758" height="5.7" x="13.738" y="13.6" fill="#B4B4B5"/>
    <rect width="5.758" height="5.7" x="20.304" y="13.6" fill="#DBDCDC"/>
    <rect width="5.758" height="5.7" x="7.172" y="20" fill="#888888"/>
    <rect width="5.758" height="5.7" x="20.304" y="20" fill="#5A5757"/>
  </g>
</svg>
